{
  "accessors": [
    {
      "bufferView": 2,
      "componentType": 5126,
      "count": 2537,
      "max": [
        0.8708599805831909,
        0.8650360107421875,
        0.9692280292510986
      ],
      "min": [
        -0.8733310103416443,
        -0.7214940190315247,
        -0.9632980227470398
      ],
      "type": "VEC3"
    },
    {
      "bufferView": 2,
      "byteOffset": 30444,
      "componentType": 5126,
      "count": 2537,
      "max": [
        0.9999960064888,
        0.9999523758888245,
        0.9999390244483948
      ],
      "min": [
        -0.999984860420227,
        -0.9999954700469971,
        -0.9999322295188904
      ],
      "type": "VEC3"
    },
    {
      "bufferView": 3,
      "componentType": 5126,
      "count": 2537,
      "max": [
        0.9997064471244812,
        1.0,
        0.9999998807907104,
        1.0
      ],
      "min": [
        -0.9994437098503113,
        -0.9999998807907104,
        -0.9999992847442627,
        -1.0
      ],
      "type": "VEC4"
    },
    {
      "bufferView": 1,
      "componentType": 5126,
      "count": 2537,
      "max": [
        0.9920870065689087,
        0.9757130146026611
      ],
      "min": [
        0.023723600432276726,
        0.019683700054883957
      ],
      "type": "VEC2"
    },
    {
      "bufferView": 0,
      "componentType": 5125,
      "count": 10296,
      "type": "SCALAR"
    },
    {
      "bufferView": 2,
      "byteOffset": 60888,
      "componentType": 5126,
      "count": 340,
      "max": [
        0.8947960138320923,
        0.8825410008430481,
        1.0
      ],
      "min": [
        -0.8947960138320923,
        -0.6755930185317993,
        -1.0
      ],
      "type": "VEC3"
    },
    {
      "bufferView": 2,
      "byteOffset": 64968,
      "componentType": 5126,
      "count": 340,
      "max": [
        0.998977780342102,
        0.9989665746688843,
        0.9989287853240967
      ],
      "min": [
        -0.9989778995513916,
        -0.9896699786186218,
        -0.9989287853240967
      ],
      "type": "VEC3"
    },
    {
      "bufferView": 3,
      "byteOffset": 40592,
      "componentType": 5126,
      "count": 340,
      "max": [
        0.9998981356620789,
        0.9906536936759949,
        0.9977796077728271,
        1.0
      ],
      "min": [
        -0.9934475421905518,
        -0.9952207207679749,
        -0.9975734949111938,
        1.0
      ],
      "type": "VEC4"
    },
    {
      "bufferView": 1,
      "byteOffset": 20296,
      "componentType": 5126,
      "count": 340,
      "max": [
        0.852292001247406,
        0.9344279766082764
      ],
      "min": [
        0.06224749982357025,
        0.019683700054883957
      ],
      "type": "VEC2"
    },
    {
      "bufferView": 0,
      "byteOffset": 41184,
      "componentType": 5125,
      "count": 1440,
      "type": "SCALAR"
    },
    {
      "bufferView": 2,
      "byteOffset": 69048,
      "componentType": 5126,
      "count": 4698,
      "max": [
        0.8104680180549622,
        0.7751910090446472,
        0.9558659791946411
      ],
      "min": [
        -0.8255109786987305,
        -0.8825410008430481,
        -0.9293869733810425
      ],
      "type": "VEC3"
    },
    {
      "bufferView": 2,
      "byteOffset": 125424,
      "componentType": 5126,
      "count": 4698,
      "max": [
        0.9999966025352478,
        0.9999932646751404,
        0.9999793767929077
      ],
      "min": [
        -0.9999926686286926,
        -0.9999930262565613,
        -0.9999911189079285
      ],
      "type": "VEC3"
    },
    {
      "bufferView": 3,
      "byteOffset": 46032,
      "componentType": 5126,
      "count": 4698,
      "max": [
        1.0,
        0.9999983310699463,
        1.0,
        1.0
      ],
      "min": [
        -0.9878402948379517,
        -1.0,
        -0.9999997019767761,
        -1.0
      ],
      "type": "VEC4"
    },
    {
      "bufferView": 1,
      "byteOffset": 23016,
      "componentType": 5126,
      "count": 4698,
      "max": [
        0.9754520058631897,
        0.9928020238876343
      ],
      "min": [
        0.020434999838471413,
        0.019683700054883957
      ],
      "type": "VEC2"
    },
    {
      "bufferView": 0,
      "byteOffset": 46944,
      "componentType": 5125,
      "count": 19536,
      "type": "SCALAR"
    }
  ],
  "asset": {
    "extras": {
      "author": "LungJun Factory (https://sketchfab.com/LungJunFactory)",
      "license": "CC-BY-4.0 (http://creativecommons.org/licenses/by/4.0/)",
      "source": "https://sketchfab.com/3d-models/box-stylized-0f71f7bfd3214358a79f31d9d8736fd0",
      "title": "Box Stylized"
    },
    "generator": "Sketchfab-12.65.0",
    "version": "2.0"
  },
  "bufferViews": [
    {
      "buffer": 0,
      "byteLength": 125088,
      "name": "floatBufferViews",
      "target": 34963
    },
    {
      "buffer": 0,
      "byteLength": 60600,
      "byteOffset": 125088,
      "byteStride": 8,
      "name": "floatBufferViews",
      "target": 34962
    },
    {
      "buffer": 0,
      "byteLength": 181800,
      "byteOffset": 185688,
      "byteStride": 12,
      "name": "floatBufferViews",
      "target": 34962
    },
    {
      "buffer": 0,
      "byteLength": 121200,
      "byteOffset": 367488,
      "byteStride": 16,
      "name": "floatBufferViews",
      "target": 34962
    }
  ],
  "buffers": [
    {
      "byteLength": 488688,
      "uri": "scene.bin"
    }
  ],
  "images": [
    {
      "uri": "textures/material_baseColor.jpeg"
    },
    {
      "uri": "textures/material_metallicRoughness.png"
    },
    {
      "uri": "textures/material_normal.png"
    }
  ],
  "materials": [
    {
      "doubleSided": true,
      "name": "material",
      "normalTexture": {
        "index": 2
      },
      "occlusionTexture": {
        "index": 1
      },
      "pbrMetallicRoughness": {
        "baseColorTexture": {
          "index": 0
        },
        "metallicRoughnessTexture": {
          "index": 1
        }
      }
    }
  ],
  "meshes": [
    {
      "name": "defaultMaterial",
      "primitives": [
        {
          "attributes": {
            "NORMAL": 1,
            "POSITION": 0,
            "TANGENT": 2,
            "TEXCOORD_0": 3
          },
          "indices": 4,
          "material": 0,
          "mode": 4
        }
      ]
    },
    {
      "name": "defaultMaterial",
      "primitives": [
        {
          "attributes": {
            "NORMAL": 6,
            "POSITION": 5,
            "TANGENT": 7,
            "TEXCOORD_0": 8
          },
          "indices": 9,
          "material": 0,
          "mode": 4
        }
      ]
    },
    {
      "name": "defaultMaterial",
      "primitives": [
        {
          "attributes": {
            "NORMAL": 11,
            "POSITION": 10,
            "TANGENT": 12,
            "TEXCOORD_0": 13
          },
          "indices": 14,
          "material": 0,
          "mode": 4
        }
      ]
    }
  ],
  "nodes": [
    {
      "children": [
        1
      ],
      "matrix": [
        1.0,
        0.0,
        0.0,
        0.0,
        0.0,
        2.220446049250313e-16,
        -1.0,
        0.0,
        0.0,
        1.0,
        2.220446049250313e-16,
        0.0,
        0.0,
        0.0,
        0.0,
        1.0
      ],
      "name": "Sketchfab_model"
    },
    {
      "children": [
        2,
        4,
        6
      ],
      "matrix": [
        1.0,
        0.0,
        0.0,
        0.0,
        0.0,
        -4.371139006309477e-08,
        0.999999999999999,
        0.0,
        0.0,
        -0.999999999999999,
        -4.371139006309477e-08,
        0.0,
        0.0,
        0.0,
        0.0,
        1.0
      ],
      "name": "Collada visual scene group"
    },
    {
      "children": [
        3
      ],
      "name": "Metal_low"
    },
    {
      "mesh": 0,
      "name": "defaultMaterial"
    },
    {
      "children": [
        5
      ],
      "name": "Bolt_Low"
    },
    {
      "mesh": 1,
      "name": "defaultMaterial"
    },
    {
      "children": [
        7
      ],
      "name": "Wood_Low"
    },
    {
      "mesh": 2,
      "name": "defaultMaterial"
    }
  ],
  "samplers": [
    {
      "magFilter": 9729,
      "minFilter": 9987,
      "wrapS": 10497,
      "wrapT": 10497
    }
  ],
  "scene": 0,
  "scenes": [
    {
      "name": "Sketchfab_Scene",
      "nodes": [
        0
      ]
    }
  ],
  "textures": [
    {
      "sampler": 0,
      "source": 0
    },
    {
      "sampler": 0,
      "source": 1
    },
    {
      "sampler": 0,
      "source": 2
    }
  ]
}
